<?xml version="1.0" encoding="UTF-8"?>
<svg width="38px" height="39px" viewBox="0 0 38 39" version="1.1" xmlns="http://www.w3.org/2000/svg" xmlns:xlink="http://www.w3.org/1999/xlink">
    <!-- Generator: sketchtool 61.2 (101010) - https://sketch.com -->
    <title>7824A115-AA0D-4E10-A039-D4315B85F1CA</title>
    <desc>Created with sketchtool.</desc>
    <defs>
        <polygon id="path-1" points="0 0.70805 37.541015 0.70805 37.541015 38.249745 0 38.249745"></polygon>
    </defs>
    <g id="Page-1" stroke="none" stroke-width="1" fill="none" fill-rule="evenodd">
        <g id="Home-modelos" transform="translate(-35.000000, -16.000000)">
            <g id="01Componentes/Theme/Menu/Desktop/Over-Modelos">
                <g id="Logo" transform="translate(35.000000, 16.000000)">
                    <g id="Group-3" transform="translate(0.000000, 0.141780)">
                        <mask id="mask-2" fill="white">
                            <use xlink:href="#path-1"></use>
                        </mask>
                        <g id="Clip-2"></g>
                        <path d="M32.174115,24.413445 C32.174115,26.759445 30.344065,28.382095 28.025265,28.382095 C25.680115,28.382095 23.850915,26.759445 23.850915,24.413445 L23.850915,14.517745 C23.850915,12.173445 25.680115,10.575445 28.025265,10.575445 C30.344065,10.575445 32.174115,12.173445 32.174115,14.517745 L32.174115,24.413445 Z M22.515565,28.046345 L20.608165,28.046345 L20.274115,26.887795 C19.809165,27.840645 18.829965,28.382095 17.851615,28.382095 C15.609315,28.382095 14.191515,26.759445 14.191515,24.516295 L14.191515,14.414895 C14.191515,12.379995 15.893215,10.575445 18.340365,10.575445 C20.788365,10.575445 22.386365,12.379995 22.386365,14.414895 L22.386365,17.249645 L19.268565,17.249645 L19.268565,14.363895 C19.268565,13.874295 18.959165,13.564895 18.392215,13.564895 C17.851615,13.564895 17.541365,13.874295 17.541365,14.363895 L17.541365,24.644645 C17.541365,25.135095 17.877115,25.494645 18.417715,25.494645 C18.984665,25.494645 19.319565,25.135095 19.319565,24.644645 L19.319565,21.837095 L18.443215,21.837095 L18.443215,19.516595 L22.515565,19.516595 L22.515565,28.046345 Z M13.081415,13.796945 L9.536915,13.796945 L9.536915,17.893945 L11.959415,17.893945 L11.959415,20.573145 L9.536915,20.573145 L9.536915,25.032245 L13.081415,25.032245 L13.081415,28.046345 L6.238065,28.046345 L6.238065,10.884845 L13.081415,10.884845 L13.081415,13.796945 Z M18.770465,0.707795 C8.403015,0.707795 -8.5e-05,9.112595 -8.5e-05,19.479195 C-8.5e-05,29.845795 8.403015,38.249745 18.770465,38.249745 C29.137915,38.249745 37.541015,29.845795 37.541015,19.479195 C37.541015,9.112595 29.137915,0.707795 18.770465,0.707795 L18.770465,0.707795 Z" id="Fill-1" fill="#12110F" mask="url(#mask-2)"></path>
                    </g>
                    <path d="M28.02501,13.70693 C27.58726,13.70693 27.22686,13.98998 27.22686,14.45408 L27.22686,24.76118 C27.22686,25.22528 27.58726,25.50833 28.02501,25.50833 C28.46361,25.50833 28.79851,25.22528 28.79851,24.76118 L28.79851,14.45408 C28.79851,13.98998 28.46361,13.70693 28.02501,13.70693" id="Fill-4" fill="#12110F"></path>
                </g>
            </g>
        </g>
    </g>
</svg>